<svg xmlns="http://www.w3.org/2000/svg" width="145.921" height="110.064" viewBox="0 0 145.921 110.064">
  <g id="Group_25136" data-name="Group 25136" transform="translate(-1667 -857.119)">
    <path id="Path_11092" data-name="Path 11092" d="M823.147,418.53l-2.712-2.672" transform="translate(988.326 449.011)" fill="none" stroke="#b11e1e" stroke-linecap="round" stroke-linejoin="round" stroke-width="2.048"/>
    <path id="Path_11091" data-name="Path 11091" d="M813.816,409.337l-2.712-2.672" transform="translate(991.328 451.968)" fill="none" stroke="#b11e1e" stroke-linecap="round" stroke-linejoin="round" stroke-width="2.048"/>
    <path id="Path_11093" data-name="Path 11093" d="M823.068,406.567l-2.672,2.712" transform="translate(988.338 452)" fill="none" stroke="#b11e1e" stroke-linecap="round" stroke-linejoin="round" stroke-width="2.048"/>
    <path id="Path_11094" data-name="Path 11094" d="M813.875,415.9l-2.672,2.712" transform="translate(991.296 448.998)" fill="none" stroke="#b11e1e" stroke-linecap="round" stroke-linejoin="round" stroke-width="2.048"/>
    <path id="Path_11074" data-name="Path 11074" d="M643.643,562.746l-2.712-2.672" transform="translate(1046.37 402.922)" fill="none" stroke="#b11e1e" stroke-linecap="round" stroke-linejoin="round" stroke-width="2.048"/>
    <path id="Path_11075" data-name="Path 11075" d="M634.313,553.553l-2.712-2.672" transform="translate(1049.372 405.88)" fill="none" stroke="#b11e1e" stroke-linecap="round" stroke-linejoin="round" stroke-width="2.048"/>
    <path id="Path_11076" data-name="Path 11076" d="M643.564,550.783l-2.672,2.712" transform="translate(1046.383 405.911)" fill="none" stroke="#b11e1e" stroke-linecap="round" stroke-linejoin="round" stroke-width="2.048"/>
    <path id="Path_11077" data-name="Path 11077" d="M634.371,560.113l-2.672,2.712" transform="translate(1049.341 402.909)" fill="none" stroke="#b11e1e" stroke-linecap="round" stroke-linejoin="round" stroke-width="2.048"/>
    <path id="Path_11073" data-name="Path 11073" d="M635.7,485.957a4.437,4.437,0,0,0,4.433,4.443h92.452a4.442,4.442,0,0,0,0-8.885h-3.8a4.442,4.442,0,0,1,0-8.884h12.031a4.442,4.442,0,0,0,0-8.885H726.883a4.442,4.442,0,0,0,0-8.884H686.355a4.442,4.442,0,0,0,0-8.885H650.261a4.442,4.442,0,0,0,0,8.885h-25.33a4.442,4.442,0,0,0,0,8.884h15.831a4.442,4.442,0,0,1,0,8.885h-25.33a4.442,4.442,0,0,0,0,8.884h24.7A4.437,4.437,0,0,0,635.7,485.957Zm112.083,0a4.433,4.433,0,1,1-4.432-4.443A4.437,4.437,0,0,1,747.779,485.957Z" transform="translate(1056 439.453)" fill="rgba(177,30,30,0.2)" fill-rule="evenodd"/>
    <path id="Path_11078" data-name="Path 11078" d="M719.268,492.526a24.3,24.3,0,0,0,4.757-4.038Zm6.557-6.115a30.184,30.184,0,0,0,5.985-12.093,30.625,30.625,0,0,0-37.034-36.875,30.346,30.346,0,0,0-22.6,23.734A30.617,30.617,0,0,0,705.1,497.472a30.313,30.313,0,0,0,11.871-3.655" transform="translate(1036.351 442.483)" fill="#fff" fill-rule="evenodd"/>
    <path id="Path_11079" data-name="Path 11079" d="M718.563,491.613a.694.694,0,0,0,.752,1.168Zm5.651-2.992a.694.694,0,0,0-1.036-.924Zm3.769-6.073-.6-.358Zm3.5-8.559.676.161Zm.77-9.2.693-.047Zm-1.612-7.941-.656.227Zm-3.707-7.327-.572.394ZM723.72,445.6l-.5.482Zm-5.726-4.66.37-.587Zm-6.948-3.237-.212.661Zm-9.313-1.458v0Zm-7.285.87.165.675Zm-7.778,3.09-.343-.6Zm-6.095,4.568.482.5Zm-5.729,7.592-.613-.326Zm-2.995,8.485-.682-.132Zm-.37,9.174-.69.076Zm3.638,11.451.607-.336Zm4.777,6.447.5-.482Zm10.373,7.057-.264.642Zm14.5,2.166-.064-.691Zm12.207-3.047a.694.694,0,0,0-.672-1.215Zm2.338-1.314a25.025,25.025,0,0,0,4.9-4.16l-1.036-.924a23.615,23.615,0,0,1-4.615,3.916Zm6.72-6.26a30.982,30.982,0,0,0,2.544-3.615l-1.19-.716a29.51,29.51,0,0,1-2.43,3.453Zm2.544-3.615a30.947,30.947,0,0,0,3.578-8.755l-1.351-.324a29.542,29.542,0,0,1-3.417,8.362Zm3.578-8.755a31.342,31.342,0,0,0,.787-9.408l-1.386.094a29.944,29.944,0,0,1-.752,8.991Zm.787-9.408a31.279,31.279,0,0,0-1.648-8.121l-1.312.454a29.921,29.921,0,0,1,1.574,7.76Zm-1.648-8.121a31.118,31.118,0,0,0-3.793-7.494l-1.143.789a29.745,29.745,0,0,1,3.623,7.16Zm-3.793-7.494a31.5,31.5,0,0,0-3.284-4.009l-1,.965a30.193,30.193,0,0,1,3.14,3.834Zm-3.284-4.009a31.428,31.428,0,0,0-5.855-4.766l-.74,1.175a30.05,30.05,0,0,1,5.6,4.555Zm-5.855-4.766a31.1,31.1,0,0,0-7.107-3.311l-.423,1.323a29.775,29.775,0,0,1,6.79,3.163Zm-7.107-3.311a31.343,31.343,0,0,0-9.524-1.492v1.389a29.965,29.965,0,0,1,9.1,1.425Zm-9.524-1.492a31.291,31.291,0,0,0-7.451.891l.33,1.349a29.878,29.878,0,0,1,7.12-.851Zm-7.451.891a30.9,30.9,0,0,0-7.956,3.16l.686,1.207a29.528,29.528,0,0,1,7.6-3.018Zm-7.956,3.16a31.1,31.1,0,0,0-6.234,4.672l.964,1a29.713,29.713,0,0,1,5.956-4.464Zm-6.234,4.672a31.035,31.035,0,0,0-5.86,7.765l1.226.652a29.647,29.647,0,0,1,5.6-7.418Zm-5.86,7.765a31,31,0,0,0-3.063,8.679l1.363.264a29.627,29.627,0,0,1,2.926-8.291Zm-3.063,8.679a31.371,31.371,0,0,0-.378,9.382l1.38-.152a29.988,29.988,0,0,1,.362-8.966Zm-.378,9.382a31.2,31.2,0,0,0,3.722,11.712l1.214-.674a29.821,29.821,0,0,1-3.556-11.19Zm3.722,11.712A31.417,31.417,0,0,0,679.4,488.4l1-.965a30.067,30.067,0,0,1-4.669-6.3ZM679.4,488.4a31.248,31.248,0,0,0,10.609,7.218l.528-1.285a29.866,29.866,0,0,1-10.138-6.9Zm10.609,7.218a31.349,31.349,0,0,0,14.829,2.215l-.129-1.383a29.961,29.961,0,0,1-14.171-2.117Zm14.829,2.215a31.019,31.019,0,0,0,12.143-3.739l-.672-1.215a29.631,29.631,0,0,1-11.6,3.571Z" transform="translate(1036.68 442.812)" fill="#b11e1e"/>
    <path id="Path_11088" data-name="Path 11088" d="M760.229,428.2v3.808" transform="translate(1007.784 445.04)" fill="none" stroke="#b11e1e" stroke-linecap="round" stroke-linejoin="round" stroke-width="2.048"/>
    <path id="Path_11089" data-name="Path 11089" d="M760.229,441.3v3.808" transform="translate(1007.784 440.896)" fill="none" stroke="#b11e1e" stroke-linecap="round" stroke-linejoin="round" stroke-width="2.048"/>
    <path id="Path_11087" data-name="Path 11087" d="M750.873,437.557h3.808" transform="translate(1010.802 442.03)" fill="none" stroke="#b11e1e" stroke-linecap="round" stroke-linejoin="round" stroke-width="2.048"/>
    <path id="Path_11090" data-name="Path 11090" d="M763.972,437.557h3.807" transform="translate(1006.569 442.03)" fill="none" stroke="#b11e1e" stroke-linecap="round" stroke-linejoin="round" stroke-width="2.048"/>
    <path id="Path_11081" data-name="Path 11081" d="M682.574,524.568v2.539" transform="translate(1032.874 414.273)" fill="none" stroke="#b11e1e" stroke-linecap="round" stroke-linejoin="round" stroke-width="2.048"/>
    <path id="Path_11082" data-name="Path 11082" d="M682.574,535.8v2.538" transform="translate(1032.874 410.733)" fill="none" stroke="#b11e1e" stroke-linecap="round" stroke-linejoin="round" stroke-width="2.048"/>
    <path id="Path_11080" data-name="Path 11080" d="M675.089,532.053h2.539" transform="translate(1035.291 411.874)" fill="none" stroke="#b11e1e" stroke-linecap="round" stroke-linejoin="round" stroke-width="2.048"/>
    <path id="Path_11083" data-name="Path 11083" d="M686.316,532.053h2.539" transform="translate(1031.663 411.874)" fill="none" stroke="#b11e1e" stroke-linecap="round" stroke-linejoin="round" stroke-width="2.048"/>
    <path id="Path_11084" data-name="Path 11084" d="M695.775,444.762a26.309,26.309,0,0,0-3.779,1.77,26.639,26.639,0,0,0-5.333,4,26.95,26.95,0,0,0-1.894,2.028M682.945,455q-.7,1.063-1.294,2.176-.436.821-.812,1.666" transform="translate(1033.424 439.798)" fill="#fff" fill-rule="evenodd"/>
    <path id="Path_11085" data-name="Path 11085" d="M695.69,445.082a.694.694,0,1,0-.488-1.3Zm-4.023,1.12.343.6Zm-5.333,4-.482-.5Zm-2.425,1.58a.694.694,0,1,0,1.062.895Zm-.714,3.27a.695.695,0,0,0-1.158-.766Zm-1.873,1.793.613.326Zm-1.446,1.384a.694.694,0,1,0,1.269.564ZM695.2,443.782a27.122,27.122,0,0,0-3.878,1.816l.686,1.207a25.7,25.7,0,0,1,3.68-1.723Zm-3.878,1.816a27.3,27.3,0,0,0-5.472,4.1l.965,1a25.905,25.905,0,0,1,5.194-3.893Zm-5.472,4.1a27.517,27.517,0,0,0-1.943,2.08l1.062.895a26.269,26.269,0,0,1,1.846-1.975Zm-3.815,4.583q-.721,1.091-1.328,2.234l1.226.652q.576-1.083,1.26-2.119Zm-1.328,2.234q-.448.842-.833,1.709l1.269.564q.365-.822.79-1.622Z" transform="translate(1033.754 440.126)" fill="#b11e1e"/>
    <path id="Path_11086" data-name="Path 11086" d="M697.129,476.615a2.288,2.288,0,0,0-3.2.142,2.213,2.213,0,0,0,.145,3.157l10.667,9.608a3.2,3.2,0,0,0,4.483-.2c.049-.054.049-.054.1-.11L724.54,471.16a2.214,2.214,0,0,0-.294-3.147,2.289,2.289,0,0,0-3.192.29l-14.311,16.973Z" transform="translate(1029.366 432.549)" fill="#b11e1e"/>
  </g>
</svg>
