<svg xmlns="http://www.w3.org/2000/svg" width="42.393" height="46.767" viewBox="0 0 42.393 46.767">
  <g id="user_13_" data-name="user (13)" transform="translate(-23.944 0)">
    <path id="Path_51685" data-name="Path 51685" d="M232.161.942v9.118a13.313,13.313,0,0,1,13.313,13.313h9.118a.943.943,0,0,0,.941-.981A23.4,23.4,0,0,0,233.142,0a.942.942,0,0,0-.981.941Z" transform="translate(-189.198 0)" fill="#f6e266"/>
    <path id="Path_51686" data-name="Path 51686" d="M384.6,60.824a24.482,24.482,0,0,1-.554,5.183h5.108a.941.941,0,0,0,.941-.978,23.367,23.367,0,0,0-9.847-18.11A24.278,24.278,0,0,1,384.6,60.824Z" transform="translate(-323.756 -42.632)" fill="#f1d333"/>
    <path id="Path_51687" data-name="Path 51687" d="M81.038,358.956a13.313,13.313,0,0,1-18.828,0L55.762,365.4a.941.941,0,0,0,.026,1.358,23.394,23.394,0,0,0,31.67,0,.941.941,0,0,0,.026-1.358Z" transform="translate(-28.661 -326.168)" fill="#c8ea73"/>
    <path id="Path_51688" data-name="Path 51688" d="M71.051,388.362a24.326,24.326,0,0,1-9.027-1.726,23.391,23.391,0,0,0,31.376-.264.941.941,0,0,0,.026-1.358l-4.476-4.476A24.324,24.324,0,0,1,71.051,388.362Z" transform="translate(-34.602 -345.779)" fill="#b7e445"/>
    <path id="Path_51689" data-name="Path 51689" d="M339.121,255.894a13.272,13.272,0,0,1-3.9,9.414l4.034,4.034a18.959,18.959,0,0,0,5.571-13.448Z" transform="translate(-282.845 -232.52)" fill="#dd5790"/>
    <path id="Path_51690" data-name="Path 51690" d="M362.745,255.894a24.328,24.328,0,0,1-5.939,11.385l2.063,2.063a18.959,18.959,0,0,0,5.57-13.448Z" transform="translate(-302.458 -232.52)" fill="#da387d"/>
    <path id="Path_51691" data-name="Path 51691" d="M29.65,66.7A13.313,13.313,0,0,1,42.963,53.383V47.677A19.019,19.019,0,0,0,29.514,80.144l4.034-4.034A13.272,13.272,0,0,1,29.65,66.7Z" transform="translate(0 -43.322)" fill="#9dc6fb"/>
    <g id="Group_10820" data-name="Group 10820" transform="translate(35.926 15.101)">
      <circle id="Ellipse_647" data-name="Ellipse 647" cx="3.804" cy="3.804" r="3.804" transform="translate(3.233)" fill="#f1d0a5"/>
      <path id="Path_51692" data-name="Path 51692" d="M201.23,170.842a3.8,3.8,0,0,1-5.191,5.191,3.8,3.8,0,1,0,5.191-5.191Z" transform="translate(-192.301 -170.338)" fill="#f1b986"/>
      <g id="Group_10819" data-name="Group 10819" transform="translate(0 7.608)">
        <path id="Path_51693" data-name="Path 51693" d="M155.12,252.411V254.7a.941.941,0,0,0,.941.941h12.191a.941.941,0,0,0,.941-.941v-2.292a3.8,3.8,0,0,0-3.8-3.8h-6.466A3.8,3.8,0,0,0,155.12,252.411Z" transform="translate(-155.12 -248.607)" fill="#e49542"/>
        <path id="Path_51694" data-name="Path 51694" d="M244.853,248.606h-2.282a3.8,3.8,0,0,1,3.8,3.8v3.233h1.341a.941.941,0,0,0,.941-.941V252.41A3.8,3.8,0,0,0,244.853,248.606Z" transform="translate(-234.583 -248.606)" fill="#e28424"/>
      </g>
    </g>
    <g id="Group_10821" data-name="Group 10821" transform="translate(39.214 27.137)">
      <path id="Path_51695" data-name="Path 51695" d="M192.527,299.7v-1.9a.706.706,0,1,0-1.412,0v1.9Z" transform="translate(-191.115 -297.094)" fill="#e28424"/>
      <path id="Path_51696" data-name="Path 51696" d="M259.157,299.7v-1.9a.706.706,0,1,0-1.412,0v1.9Z" transform="translate(-251.659 -297.094)" fill="#e28424"/>
    </g>
  </g>
</svg>
