<svg xmlns="http://www.w3.org/2000/svg" width="16.149" height="18.39" viewBox="0 0 16.149 18.39">
  <g id="Group_25232" data-name="Group 25232" transform="translate(-841.982 -262.334)">
    <path id="Path_51995" data-name="Path 51995" d="M94.229,6.33a3.165,3.165,0,1,0-3.165-3.165A3.169,3.169,0,0,0,94.229,6.33Z" transform="translate(753.074 262.334)" fill="#b11e1e"/>
    <path id="Path_51996" data-name="Path 51996" d="M41.6,180.114a3.943,3.943,0,0,0-3.118-2.732l-1.493,2.126v4.658h-1.08v-4.658l-1.493-2.126a3.937,3.937,0,0,0-3.289,3.878v6.948h7.617a5.279,5.279,0,0,1,2.856-8.094Zm-6.934,2.02h-1.2v-1.2h1.2Z" transform="translate(810.852 91.335)" fill="#b11e1e"/>
    <path id="Path_51997" data-name="Path 51997" d="M250.542,277.47a4.2,4.2,0,1,0,4.2,4.2A4.187,4.187,0,0,0,250.542,277.47Zm-.449,6-.854-.854-.69-.69.69-.69.073-.073.781.781,1.679-1.679.763.763Z" transform="translate(603.387 -5.152)" fill="#b11e1e"/>
  </g>
</svg>
