<svg id="identification" xmlns="http://www.w3.org/2000/svg" width="20.031" height="14.372" viewBox="0 0 20.031 14.372">
  <path id="Path_51976" data-name="Path 51976" d="M18.549,0H1.482A1.484,1.484,0,0,0,0,1.482V12.89a1.484,1.484,0,0,0,1.482,1.482H18.549a1.484,1.484,0,0,0,1.482-1.482V1.482A1.484,1.484,0,0,0,18.549,0ZM5.677,2.5A2.185,2.185,0,1,1,3.49,4.684,2.185,2.185,0,0,1,5.677,2.5ZM8.794,11.87H2.56a.313.313,0,0,1-.314-.314,3.6,3.6,0,0,1,1-2.542,3.416,3.416,0,0,1,4.859,0,3.6,3.6,0,0,1,1,2.542.313.313,0,0,1-.314.314Zm8.65-1.5H12.211a.314.314,0,1,1,0-.629h5.232a.314.314,0,1,1,0,.629Zm0-2.874H12.211a.314.314,0,0,1,0-.629h5.232a.314.314,0,1,1,0,.629Zm0-2.874H12.211a.314.314,0,0,1,0-.629h5.232a.314.314,0,1,1,0,.629Zm0,0" fill="#b11e1e"/>
  <path id="Path_51977" data-name="Path 51977" d="M94.816,71.258A1.558,1.558,0,1,1,93.258,69.7,1.559,1.559,0,0,1,94.816,71.258Zm0,0" transform="translate(-87.581 -66.569)" fill="#b11e1e"/>
  <path id="Path_51978" data-name="Path 51978" d="M67.09,192.1a2.742,2.742,0,0,0-1.981.826,2.941,2.941,0,0,0-.808,1.788h5.578a2.929,2.929,0,0,0-.808-1.788A2.734,2.734,0,0,0,67.09,192.1Zm0,0" transform="translate(-61.413 -183.472)" fill="#b11e1e"/>
</svg>
