<svg id="mortarboard_2_" data-name="mortarboard (2)" xmlns="http://www.w3.org/2000/svg" width="18.383" height="15.334" viewBox="0 0 18.383 15.334">
  <path id="Path_51990" data-name="Path 51990" d="M18.024,45.552,9.371,42.5a.538.538,0,0,0-.358,0L.359,45.552a.539.539,0,0,0,0,1.015l8.653,3.076a.538.538,0,0,0,.361,0l8.653-3.076a.539.539,0,0,0,0-1.015Z" transform="translate(0 -42.468)" fill="#b11e1e"/>
  <path id="Path_51991" data-name="Path 51991" d="M432.468,202.432v-4.7l-1.077.383v4.315a1.081,1.081,0,0,0,0,1.876v2.647a.539.539,0,1,0,1.077,0v-2.647a1.081,1.081,0,0,0,0-1.876Z" transform="translate(-415.378 -192.159)" fill="#b11e1e"/>
  <path id="Path_51992" data-name="Path 51992" d="M110.85,224.235a1.611,1.611,0,0,1-.541-.093l-4.865-1.729v2.37c0,.58.6,1.07,1.8,1.457a12.7,12.7,0,0,0,7.216,0c1.193-.387,1.8-.878,1.8-1.457v-2.37l-4.864,1.729A1.612,1.612,0,0,1,110.85,224.235Z" transform="translate(-101.658 -215.951)" fill="#b11e1e"/>
</svg>
