<svg id="mortarboard_1_" data-name="mortarboard (1)" xmlns="http://www.w3.org/2000/svg" width="51.15" height="35.399" viewBox="0 0 51.15 35.399">
  <path id="Path_51514" data-name="Path 51514" d="M109.005,238.431l.482,1s7.65,6.212,14.2,6.212,14.237-6.212,14.237-6.212l.447-1h0a70.464,70.464,0,0,1-2.272-8.4l-1.4-.787h-22.23l-1.195.787a70.471,70.471,0,0,1-2.272,8.4Z" transform="translate(-98.115 -214.215)" fill="#365e7d"/>
  <path id="Path_51515" data-name="Path 51515" d="M115.5,229.579l.513-.338h-3.544l-1.195.787a70.471,70.471,0,0,1-2.272,8.4h0l.482,1a35.3,35.3,0,0,0,3,2.118C113.562,237.97,114.653,233.851,115.5,229.579Z" transform="translate(-98.115 -214.215)" fill="#294b64"/>
  <path id="Path_51516" data-name="Path 51516" d="M50.657,87.09l-23.8-8.045a3.993,3.993,0,0,0-2.556,0L.494,87.09a.726.726,0,0,0-.086,1.34L23.826,99.847a3.992,3.992,0,0,0,3.5,0L50.743,88.43A.726.726,0,0,0,50.657,87.09Z" transform="translate(-0.001 -78.835)" fill="#477b9e"/>
  <path id="Path_51517" data-name="Path 51517" d="M7.613,88.429a.726.726,0,0,1,.086-1.34L29.178,79.83l-2.324-.785a3.991,3.991,0,0,0-2.556,0L.494,87.089a.726.726,0,0,0-.086,1.34L23.826,99.846a3.992,3.992,0,0,0,3.5,0l1.853-.9Z" transform="translate(-0.001 -78.834)" fill="#3f6d8e"/>
  <g id="Group_10804" data-name="Group 10804" transform="translate(26.013 6.535)">
    <path id="Path_51518" data-name="Path 51518" d="M279.748,166.186a.772.772,0,0,1-.772-.772V151.139a.806.806,0,0,0-.6-.78l-17.421-4.593a.772.772,0,0,1,.394-1.493l17.419,4.593a2.35,2.35,0,0,1,1.754,2.273v14.275A.772.772,0,0,1,279.748,166.186Z" transform="translate(-260.378 -144.248)" fill="#ecf4ff"/>
  </g>
  <path id="Path_51519" data-name="Path 51519" d="M440.532,373.3h-2.7l-.321,5a.71.71,0,0,0,.7.765h1.953a.71.71,0,0,0,.7-.765Z" transform="translate(-393.798 -343.877)" fill="#ffd064"/>
  <path id="Path_51520" data-name="Path 51520" d="M439.267,378.293l.321-5h-1.759l-.321,5a.71.71,0,0,0,.7.765h1.759A.71.71,0,0,1,439.267,378.293Z" transform="translate(-393.798 -343.877)" fill="#ebb044"/>
  <path id="Path_51521" data-name="Path 51521" d="M439.045,337.336h-1.251a1.137,1.137,0,0,0-1.133,1.133v2.25a.371.371,0,0,0,.371.371h2.777a.371.371,0,0,0,.371-.371v-2.25A1.137,1.137,0,0,0,439.045,337.336Z" transform="translate(-393.037 -311.511)" fill="#ffe07d"/>
  <path id="Path_51522" data-name="Path 51522" d="M438.65,340.718v-2.25a1.137,1.137,0,0,1,.764-1.07,1.12,1.12,0,0,0-.369-.063h-1.251a1.137,1.137,0,0,0-1.133,1.133v2.25a.371.371,0,0,0,.371.371h1.99A.37.37,0,0,1,438.65,340.718Z" transform="translate(-393.036 -311.51)" fill="#ffd064"/>
  <path id="Path_51523" data-name="Path 51523" d="M233.125,130.436a2.557,2.557,0,0,0-2.716,2.552V133a1.206,1.206,0,0,0,1.214,1.184h2.686a1.207,1.207,0,0,0,1.211-1.322A2.569,2.569,0,0,0,233.125,130.436Z" transform="translate(-207.39 -125.277)" fill="#3f6d8e"/>
  <path id="Path_51524" data-name="Path 51524" d="M232.726,133v-.013a2.556,2.556,0,0,1,1.394-2.277,2.511,2.511,0,0,0-.994-.275,2.557,2.557,0,0,0-2.716,2.552V133a1.206,1.206,0,0,0,1.214,1.184h2.316A1.206,1.206,0,0,1,232.726,133Z" transform="translate(-207.391 -125.277)" fill="#365e7d"/>
  <path id="Path_51525" data-name="Path 51525" d="M130.875,321.231a37.933,37.933,0,0,1-11.758,6.192,9.6,9.6,0,0,1-5.854,0,37.933,37.933,0,0,1-11.758-6.192c-.258.771-.5,1.441-.693,1.982a2.288,2.288,0,0,0,.731,2.585,38.3,38.3,0,0,0,11.72,6.159,9.6,9.6,0,0,0,5.854,0,38.3,38.3,0,0,0,11.72-6.159,2.288,2.288,0,0,0,.731-2.585C131.37,322.672,131.133,322,130.875,321.231Z" transform="translate(-90.615 -297.015)" fill="#ffe07d"/>
  <path id="Path_51526" data-name="Path 51526" d="M105.164,323.76a29.861,29.861,0,0,1-3.66-2.53c-.258.771-.5,1.441-.693,1.982a2.288,2.288,0,0,0,.731,2.584c.813.639,1.634,1.223,2.451,1.756.381-1.18.776-2.45,1.172-3.793Z" transform="translate(-90.614 -297.014)" fill="#ffd064"/>
</svg>
