<svg xmlns="http://www.w3.org/2000/svg" width="38.54" height="32.324" viewBox="0 0 38.54 32.324">
  <g id="suitcase" transform="translate(0 -40)">
    <g id="Group_10817" data-name="Group 10817" transform="translate(11.706 42.295)">
      <rect id="Rectangle_7540" data-name="Rectangle 7540" width="1.891" height="4.412" transform="translate(0 0)" fill="#890606"/>
      <rect id="Rectangle_7541" data-name="Rectangle 7541" width="1.891" height="4.412" transform="translate(13.237 0)" fill="#890606"/>
    </g>
    <path id="Path_51659" data-name="Path 51659" d="M166.919,42.735c0,.559-.559.995-1.43.995H153.43c-.932,0-1.43-.435-1.43-.995V40.995c0-.622.559-.995,1.43-.995h12c.932,0,1.492.373,1.492.995Z" transform="translate(-140.189)" fill="#ed5b3a"/>
    <path id="Path_51660" data-name="Path 51660" d="M165.489,40H153.43c-.87,0-1.43.373-1.43.995v.062a29.571,29.571,0,0,0,7.459.808,26.635,26.635,0,0,0,7.459-.87h0C166.919,40.373,166.359,40,165.489,40Z" transform="translate(-140.189)" fill="#f48b56"/>
    <path id="Path_51661" data-name="Path 51661" d="M38.54,144.181a1.937,1.937,0,0,1-1.927,1.927H1.927A1.937,1.937,0,0,1,0,144.181V121.927A1.937,1.937,0,0,1,1.927,120H36.613a1.937,1.937,0,0,1,1.927,1.927v22.254Z" transform="translate(0 -73.784)" fill="#08476b"/>
    <path id="Path_51662" data-name="Path 51662" d="M1.6,121.865A1.884,1.884,0,0,1,3.527,120H37.965a2.048,2.048,0,0,1,2.051,1.927v22.316a2,2,0,0,1-2.051,1.865H22.611" transform="translate(-1.476 -73.784)" fill="#05365b"/>
    <path id="Path_51663" data-name="Path 51663" d="M19.27,174.795c8.7,0,16.162-3.046,19.27-7.273v-5.781A1.9,1.9,0,0,0,36.489,160H2.051A1.9,1.9,0,0,0,0,161.741v5.781C3.108,171.811,10.568,174.795,19.27,174.795Z" transform="translate(0 -110.676)" fill="#002c47"/>
    <path id="Path_51664" data-name="Path 51664" d="M19.27,135.744c8.7,0,16.162-3.046,19.27-7.273V122.69a2.048,2.048,0,0,0-2.051-1.927H1.927A1.846,1.846,0,0,0,0,122.628v5.781C3.108,132.7,10.568,135.744,19.27,135.744Z" transform="translate(0 -74.484)" fill="#2072a0"/>
    <path id="Path_51665" data-name="Path 51665" d="M41.405,134.981c8.7,0,16.162-2.984,19.27-7.273v-5.781A1.937,1.937,0,0,0,58.749,120H24" transform="translate(-22.135 -73.784)" fill="#195f8e"/>
    <path id="Path_51666" data-name="Path 51666" d="M221.711,293.485c0,.5-.373,1.119-.932,1.119h-2.922a1.25,1.25,0,0,1-1.057-1.119v-6.154c0-.5.373-.124.932-.124h3.046c.559,0,.932-.311.932.124Z" transform="translate(-199.954 -227.874)" fill="#002c47"/>
    <path id="Path_51667" data-name="Path 51667" d="M221.711,276.125c0,.5-.373.622-.932.622h-3.046c-.559,0-.932-.124-.932-.622v-6.154c0-.5.373-.062.932-.062h3.046c.559,0,.932-.435.932.062Z" transform="translate(-199.954 -211.881)" fill="#ed5b3a"/>
    <path id="Path_51668" data-name="Path 51668" d="M216,269.971c0-.5.373-.062.932-.062h3.046c.559,0,.932-.435.932.062v6.154c0,.5-.373.622-.932.622" transform="translate(-199.216 -211.881)" fill="#dd4228"/>
    <path id="Path_51669" data-name="Path 51669" d="M234.486,290.22c0,.249-.062.249-.373.249h-1.741c-.311,0-.373,0-.373-.249v-4.165c0-.249.186.062.559.062h1.43c.311,0,.5-.311.5-.062Z" transform="translate(-213.973 -226.848)" fill="#b53023"/>
    <path id="Path_51670" data-name="Path 51670" d="M232,286.056c0-.249.311.062.622.062h1.305c.311,0,.559-.311.559-.062v4.165c0,.249-.124.249-.5.249" transform="translate(-213.973 -226.848)" fill="#9b1812"/>
  </g>
</svg>
