<svg id="language" xmlns="http://www.w3.org/2000/svg" width="37.992" height="37.992" viewBox="0 0 37.992 37.992">
  <path id="Path_51536" data-name="Path 51536" d="M222.332,91H205.284l-2.562,30.854a3.258,3.258,0,0,0,1.466.386h18.144a3.343,3.343,0,0,0,3.339-3.339V94.339A3.343,3.343,0,0,0,222.332,91Z" transform="translate(-187.679 -84.247)" fill="#dae2f2"/>
  <path id="Path_51537" data-name="Path 51537" d="M169.867,407.86l.591,4.8A3.4,3.4,0,0,0,172.3,415.2c2.164-2.328.713-.842,5.849-6.366Z" transform="translate(-157.262 -377.595)" fill="#600e0e"/>
  <path id="Path_51538" data-name="Path 51538" d="M20.892,31.24c.364-.416.683-.7.6-1.269L18.118,2.925A3.344,3.344,0,0,0,14.8,0H3.339A3.343,3.343,0,0,0,0,3.339V27.9A3.343,3.343,0,0,0,3.339,31.24Z" fill="#b11e1e"/>
  <path id="Path_51539" data-name="Path 51539" d="M82.655,106.895A1.114,1.114,0,0,0,81.564,106H79.338a1.114,1.114,0,0,0-1.091.895L76.02,118.025a1.113,1.113,0,1,0,2.183.437l.711-3.558h3.073l.711,3.558a1.113,1.113,0,1,0,2.183-.437Zm-3.3,5.784.89-4.452h.4l.89,4.452Z" transform="translate(-70.359 -98.134)" fill="#e6eeff"/>
  <path id="Path_51540" data-name="Path 51540" d="M311.018,198.226h-3.339v-1.113a1.113,1.113,0,1,0-2.226,0v1.113h-3.339a1.113,1.113,0,1,0,0,2.226h.3a14.052,14.052,0,0,0,2.607,4.875c-.818.748-1.618,1.361-2.487,2.048a1.113,1.113,0,0,0,1.391,1.737c.945-.746,1.757-1.37,2.644-2.183.887.814,1.7,1.438,2.643,2.183a1.113,1.113,0,1,0,1.391-1.737c-.869-.687-1.669-1.3-2.487-2.048a14.049,14.049,0,0,0,2.607-4.875h.3a1.113,1.113,0,1,0,0-2.226Zm-4.452,5.452a11.633,11.633,0,0,1-1.827-3.225h3.655A11.632,11.632,0,0,1,306.565,203.678Z" transform="translate(-278.665 -181.456)" fill="#53565c"/>
</svg>
