<svg id="language_1_" data-name="language (1)" xmlns="http://www.w3.org/2000/svg" width="19.069" height="19.069" viewBox="0 0 19.069 19.069">
  <g id="Group_25238" data-name="Group 25238" transform="translate(4.48 5.102)">
    <g id="Group_25237" data-name="Group 25237">
      <path id="Path_52009" data-name="Path 52009" d="M120.979,137h-.239l-.447,2.235h1.133Z" transform="translate(-120.293 -137)" fill="#b11e1e"/>
    </g>
  </g>
  <g id="Group_25240" data-name="Group 25240" transform="translate(14.204 9.572)">
    <g id="Group_25239" data-name="Group 25239">
      <path id="Path_52010" data-name="Path 52010" d="M381.374,257a5.838,5.838,0,0,0,.917,1.619,5.9,5.9,0,0,0,.954-1.619Z" transform="translate(-381.374 -257)" fill="#b11e1e"/>
    </g>
  </g>
  <g id="Group_25242" data-name="Group 25242" transform="translate(9.038 3.389)">
    <g id="Group_25241" data-name="Group 25241">
      <path id="Path_52011" data-name="Path 52011" d="M251.018,91H244.08l1.447,11.608a1.734,1.734,0,0,1-.414,1.272l-2.45,2.8h8.355A1.678,1.678,0,0,0,252.694,105V92.713A1.71,1.71,0,0,0,251.018,91Zm0,6.183h-.149a7.089,7.089,0,0,1-1.346,2.447c.41.375.849.683,1.286,1.028a.559.559,0,1,1-.7.872c-.474-.374-.919-.687-1.364-1.1-.445.408-.853.722-1.327,1.1a.559.559,0,1,1-.7-.872c.436-.345.838-.653,1.248-1.028a7.051,7.051,0,0,1-1.309-2.447h-.149a.559.559,0,0,1,0-1.117h1.676v-.559a.559.559,0,1,1,1.117,0v.559h1.713a.559.559,0,1,1,0,1.117Z" transform="translate(-242.663 -91)" fill="#b11e1e"/>
    </g>
  </g>
  <g id="Group_25244" data-name="Group 25244">
    <g id="Group_25243" data-name="Group 25243">
      <path id="Path_52012" data-name="Path 52012" d="M9.094,1.468A1.678,1.678,0,0,0,7.431,0H1.676A1.678,1.678,0,0,0,0,1.676V14.041a1.678,1.678,0,0,0,1.676,1.676h8.81c.163-.186.3-.3.305-.546C10.793,15.11,9.1,1.529,9.094,1.468Zm-2.243,9.21a.559.559,0,0,1-.657-.438L5.836,8.454H4.257L3.9,10.24a.559.559,0,0,1-1.1-.219L3.922,4.434a.559.559,0,0,1,.548-.449H5.624a.559.559,0,0,1,.548.449l1.117,5.587A.559.559,0,0,1,6.851,10.678Z" fill="#b11e1e"/>
    </g>
  </g>
  <g id="Group_25246" data-name="Group 25246" transform="translate(6.527 16.834)">
    <g id="Group_25245" data-name="Group 25245">
      <path id="Path_52013" data-name="Path 52013" d="M175.261,452l.1.767a1.69,1.69,0,0,0,.966,1.3L178.2,452Z" transform="translate(-175.261 -452)" fill="#b11e1e"/>
    </g>
  </g>
</svg>
