<svg xmlns="http://www.w3.org/2000/svg" width="39.273" height="28.734" viewBox="0 0 39.273 28.734">
  <g id="folder_1_" data-name="folder (1)" transform="translate(0 -64.84)">
    <g id="icon_68_" transform="translate(0 64.84)">
      <path id="Path_51697" data-name="Path 51697" d="M34.533,71.2V91.5a1.85,1.85,0,0,1-.044.41l-.132.439a2.048,2.048,0,0,1-1.889,1.23H2.065A2.071,2.071,0,0,1,.059,91.994,1.858,1.858,0,0,1,0,91.5V66.612A1.769,1.769,0,0,1,1.766,64.84h9.048a1.8,1.8,0,0,1,1.537.879l2.138,3.705H32.775A1.766,1.766,0,0,1,34.533,71.2Z" transform="translate(0 -64.84)" fill="#eaa14e"/>
      <path id="Path_51698" data-name="Path 51698" d="M38.146,180.939a1.791,1.791,0,0,1,1.712,2.317l-4.707,15.313-.132.439a2.048,2.048,0,0,1-1.889,1.23H2.729a2.071,2.071,0,0,1-2.006-1.581l4.933-16.443a1.791,1.791,0,0,1,1.714-1.275Z" transform="translate(-0.664 -171.504)" fill="#f6b863"/>
    </g>
  </g>
</svg>
