<svg xmlns="http://www.w3.org/2000/svg" width="31.556" height="37.824" viewBox="0 0 31.556 37.824">
  <g id="Group_25133" data-name="Group 25133" transform="translate(-130.617 -83.5)">
    <path id="Path_51628" data-name="Path 51628" d="M174.817,151.109a9.11,9.11,0,0,1-9.11,9.11h0a9.11,9.11,0,0,1,0-18.219h0a9.111,9.111,0,0,1,9.11,9.109Z" transform="translate(-19.551 -58.5)" fill="#ffbb85"/>
    <path id="Path_51629" data-name="Path 51629" d="M179.994,178.234a6.281,6.281,0,0,1-1.865,4.752,6.715,6.715,0,0,1-4.807,1.753H155.109a6.711,6.711,0,0,1-4.806-1.753,6.28,6.28,0,0,1-1.865-4.752c0-.76.024-1.511.075-2.234a22.5,22.5,0,0,1,.307-2.391,18.894,18.894,0,0,1,.588-2.4,11.917,11.917,0,0,1,.987-2.242,8.455,8.455,0,0,1,1.489-1.941,6.557,6.557,0,0,1,2.14-1.345,7.4,7.4,0,0,1,2.732-.494,2.772,2.772,0,0,1,1.479.627c.451.294.971.629,1.544,1a8.831,8.831,0,0,0,2,.879,7.962,7.962,0,0,0,2.2.39c.081,0,.162,0,.242,0a7.929,7.929,0,0,0,2.441-.395,8.815,8.815,0,0,0,2-.879c.58-.37,1.1-.7,1.544-.994a2.767,2.767,0,0,1,1.481-.628,7.4,7.4,0,0,1,2.731.494,6.558,6.558,0,0,1,2.139,1.345,8.436,8.436,0,0,1,1.49,1.941,11.9,11.9,0,0,1,.987,2.241,18.919,18.919,0,0,1,.589,2.4,22.746,22.746,0,0,1,.306,2.39C179.969,176.721,179.993,177.472,179.994,178.234Z" transform="translate(-17.821 -63.415)" fill="#6aa9ff"/>
    <path id="Path_51630" data-name="Path 51630" d="M168.157,160.219h0V142h0a9.11,9.11,0,0,1,0,18.219Z" transform="translate(-22 -58.5)" fill="#f5a86c"/>
    <path id="Path_51631" data-name="Path 51631" d="M184.174,178.234a6.281,6.281,0,0,1-1.865,4.752,6.715,6.715,0,0,1-4.808,1.753h-9.349V168.078c.081,0,.162,0,.242,0a7.929,7.929,0,0,0,2.441-.395,8.815,8.815,0,0,0,2-.879c.58-.37,1.1-.7,1.543-.994a2.771,2.771,0,0,1,1.481-.628,7.406,7.406,0,0,1,2.731.494,6.567,6.567,0,0,1,2.139,1.345,8.435,8.435,0,0,1,1.49,1.941,11.9,11.9,0,0,1,.987,2.241,18.79,18.79,0,0,1,.588,2.4A22.542,22.542,0,0,1,184.1,176C184.148,176.721,184.173,177.472,184.174,178.234Z" transform="translate(-22 -63.415)" fill="#2682ff"/>
  </g>
</svg>
