<svg id="badge" xmlns="http://www.w3.org/2000/svg" width="33.922" height="43.14" viewBox="0 0 33.922 43.14">
  <g id="Group_10803" data-name="Group 10803" transform="translate(0 0)">
    <g id="Group_10799" data-name="Group 10799" transform="translate(2.837 21.87)">
      <path id="Path_51500" data-name="Path 51500" d="M94.181,276.07l6.012-14.513-4.828-2-6.926,16.721a.9.9,0,0,0,1.1,1.207l3.927-1.205a.866.866,0,0,1,.344-.035Z" transform="translate(-88.368 -259.558)" fill="#ffe07d"/>
      <path id="Path_51501" data-name="Path 51501" d="M159.053,282.027l-6.128,14.794a.9.9,0,0,1,.717.475l1.925,3.629a.9.9,0,0,0,1.629-.077l6.926-16.721Z" transform="translate(-147.486 -280.134)" fill="#ffd064"/>
      <path id="Path_51502" data-name="Path 51502" d="M231.39,281.364l-5.2,2.156,6.926,16.721a.9.9,0,0,0,1.629.077l1.925-3.629a.9.9,0,0,1,.233-.282l.471-.6Z" transform="translate(-214.574 -279.527)" fill="#ffe07d"/>
      <path id="Path_51503" data-name="Path 51503" d="M292.617,276.278l-6.926-16.721-5.051,2.092,6.126,14.788a.9.9,0,0,1,.827-.158l3.927,1.205A.9.9,0,0,0,292.617,276.278Z" transform="translate(-264.44 -259.557)" fill="#ffd064"/>
    </g>
    <g id="Group_10802" data-name="Group 10802">
      <path id="Path_51504" data-name="Path 51504" d="M73.4.606a2.8,2.8,0,0,0,2.569.48,2.8,2.8,0,0,1,3.243,1.257,2.8,2.8,0,0,0,2.222,1.376,2.8,2.8,0,0,1,2.571,2.343,2.8,2.8,0,0,0,1.575,2.086,2.8,2.8,0,0,1,1.55,3.114,2.8,2.8,0,0,0,.715,2.514,2.8,2.8,0,0,1,.321,3.463,2.8,2.8,0,0,0-.241,2.6,2.8,2.8,0,0,1-.952,3.346,2.8,2.8,0,0,0-1.165,2.339,2.8,2.8,0,0,1-2.1,2.776,2.8,2.8,0,0,0-1.931,1.761,2.8,2.8,0,0,1-2.957,1.831,2.8,2.8,0,0,0-2.437.944,2.8,2.8,0,0,1-3.419.639,2.8,2.8,0,0,0-2.613,0,2.8,2.8,0,0,1-3.419-.639,2.8,2.8,0,0,0-2.437-.944,2.8,2.8,0,0,1-2.957-1.831A2.8,2.8,0,0,0,59.611,28.3a2.8,2.8,0,0,1-2.1-2.776,2.8,2.8,0,0,0-1.165-2.339,2.8,2.8,0,0,1-.952-3.346,2.8,2.8,0,0,0-.241-2.6,2.8,2.8,0,0,1,.321-3.463,2.8,2.8,0,0,0,.715-2.514,2.8,2.8,0,0,1,1.55-3.114,2.8,2.8,0,0,0,1.575-2.086,2.8,2.8,0,0,1,2.571-2.343,2.8,2.8,0,0,0,2.222-1.376,2.8,2.8,0,0,1,3.243-1.257,2.8,2.8,0,0,0,2.569-.48,2.8,2.8,0,0,1,3.478,0Z" transform="translate(-54.701 0)" fill="#e8ae4d"/>
      <g id="Group_10801" data-name="Group 10801" transform="translate(4.616 4.556)">
        <path id="Path_51505" data-name="Path 51505" d="M129.468,67a12.986,12.986,0,0,0-8.8-12.291,12.345,12.345,0,0,0,0,24.581A12.985,12.985,0,0,0,129.468,67Z" transform="translate(-109.489 -54.656)" fill="#ffe07d"/>
        <path id="Path_51506" data-name="Path 51506" d="M226.119,54.07a12.383,12.383,0,0,0-2.749.308,12.347,12.347,0,0,1,0,24.074,12.346,12.346,0,1,0,2.749-24.381Z" transform="translate(-213.775 -54.07)" fill="#ffd064"/>
        <path id="Path_51507" data-name="Path 51507" d="M162.822,110.6l4.261,2.868a.594.594,0,0,0,.515.079q.226-.307.434-.627a.644.644,0,0,0-.023-.125L166.6,107.86a.609.609,0,0,1,.21-.647l3.254-2.547a12.954,12.954,0,0,0-.278-1.733l-4.418-.158a.609.609,0,0,1-.55-.4l-1.761-4.825a.609.609,0,0,0-1.144,0l-1.761,4.824a.609.609,0,0,1-.55.4l-5.133.184a.609.609,0,0,0-.354,1.088l4.044,3.166a.609.609,0,0,1,.21.647l-1.411,4.938a.609.609,0,0,0,.926.673l4.261-2.868A.609.609,0,0,1,162.822,110.6Z" transform="translate(-150.137 -93.52)" fill="#e8ae4d"/>
        <g id="Group_10800" data-name="Group 10800" transform="translate(16.697 9.384)">
          <path id="Path_51508" data-name="Path 51508" d="M307.906,273.809a.609.609,0,0,0,.926-.673l-.256-.9a12.377,12.377,0,0,1-.918,1.4Z" transform="translate(-307.658 -263.242)" fill="#e5a32e"/>
          <path id="Path_51509" data-name="Path 51509" d="M334.533,165.494l-1.528-.055a12.34,12.34,0,0,1,.342,2.348l1.539-1.205A.609.609,0,0,0,334.533,165.494Z" transform="translate(-330.869 -165.439)" fill="#e5a32e"/>
        </g>
      </g>
    </g>
  </g>
</svg>
