<svg id="presentation_2_" data-name="presentation (2)" xmlns="http://www.w3.org/2000/svg" width="46.924" height="41.035" viewBox="0 0 46.924 41.035">
  <path id="Path_51671" data-name="Path 51671" d="M258.451,259.944a1.375,1.375,0,0,1-1.292-1.845l5.89-16.2a1.375,1.375,0,1,1,2.584.94l-5.89,16.2A1.376,1.376,0,0,1,258.451,259.944Zm0,0" transform="translate(-233.516 -218.91)" fill="#3ab4fb"/>
  <path id="Path_51672" data-name="Path 51672" d="M360.143,259.945a1.375,1.375,0,0,1-1.291-.9l-5.949-16.2a1.375,1.375,0,0,1,2.581-.948l5.949,16.2A1.376,1.376,0,0,1,360.143,259.945Zm0,0" transform="translate(-320.484 -218.91)" fill="#1d9cfd"/>
  <path id="Path_51673" data-name="Path 51673" d="M217.736,0H197.12A4.319,4.319,0,0,0,192.8,4.319v16.2a4.319,4.319,0,0,0,4.319,4.319h20.616a4.319,4.319,0,0,0,4.319-4.319V4.319A4.319,4.319,0,0,0,217.736,0Zm0,0" transform="translate(-175.131)" fill="#eff6fe"/>
  <path id="Path_51674" data-name="Path 51674" d="M360.918,0H350.43V24.837h10.488a4.319,4.319,0,0,0,4.319-4.319V4.319A4.319,4.319,0,0,0,360.918,0Zm0,0" transform="translate(-318.313)" fill="#d9e4ef"/>
  <path id="Path_51675" data-name="Path 51675" d="M41.975,35.988A5.988,5.988,0,1,1,35.988,30,5.988,5.988,0,0,1,41.975,35.988Zm0,0" transform="translate(-27.251 -27.251)" fill="#ffcfbe"/>
  <path id="Path_51676" data-name="Path 51676" d="M233.724,154.564a1.375,1.375,0,0,1-.615-1.844l3.681-7.363a1.375,1.375,0,1,1,2.459,1.23l-3.681,7.362A1.375,1.375,0,0,1,233.724,154.564Zm0,0" transform="translate(-211.613 -131.345)" fill="#ffb826"/>
  <path id="Path_51677" data-name="Path 51677" d="M101.317,35.984a5.988,5.988,0,0,1-5.989,5.988V30A5.988,5.988,0,0,1,101.317,35.984Zm0,0" transform="translate(-86.591 -27.247)" fill="#f9bcaa"/>
  <path id="Path_51678" data-name="Path 51678" d="M273.166,58.988H258.441a1.375,1.375,0,1,1,0-2.749h14.725a1.375,1.375,0,1,1,0,2.749Zm0,0" transform="translate(-233.507 -51.084)" fill="#3ab4fb"/>
  <g id="Group_10818" data-name="Group 10818" transform="translate(32.117 5.154)">
    <path id="Path_51679" data-name="Path 51679" d="M357.973,123.249H351.8a1.375,1.375,0,0,1,0-2.749h6.168a1.375,1.375,0,0,1,0,2.749Zm0,0" transform="translate(-350.43 -114.61)" fill="#1d9cfd"/>
    <path id="Path_51680" data-name="Path 51680" d="M357.973,187.515H351.8a1.375,1.375,0,0,1,0-2.749h6.168a1.375,1.375,0,0,1,0,2.749Zm0,0" transform="translate(-350.43 -172.986)" fill="#1d9cfd"/>
    <path id="Path_51681" data-name="Path 51681" d="M357.973,56.238H350.43v2.749h7.543a1.375,1.375,0,0,0,0-2.749Zm0,0" transform="translate(-350.43 -56.238)" fill="#1d9cfd"/>
  </g>
  <path id="Path_51682" data-name="Path 51682" d="M13.155,186.977H4.32A1.375,1.375,0,0,1,2.945,185.6v-7.685A4.327,4.327,0,0,1,0,173.822v-4.417a8.668,8.668,0,0,1,2.561-6.179,8.782,8.782,0,0,1,6.176-2.558H9.952c2.412,0,3.825.883,5.806,1.868,2.181,1.085,4.9,2.438,6.638,3.3a3.577,3.577,0,0,1,1.792,4.352l-.005.016a3.766,3.766,0,0,1-5.252,2.151l-4.4-2.2V185.6A1.375,1.375,0,0,1,13.155,186.977Zm0,0" transform="translate(0 -145.943)" fill="#ff7579"/>
  <path id="Path_51683" data-name="Path 51683" d="M108.988,165.839c-1.736-.865-4.457-2.218-6.639-3.3-1.98-.985-3.394-1.868-5.805-1.868H95.328v26.309h4.418a1.375,1.375,0,0,0,1.375-1.375V170.157l4.4,2.2a3.766,3.766,0,0,0,5.252-2.151l.005-.016A3.577,3.577,0,0,0,108.988,165.839Zm0,0" transform="translate(-86.591 -145.943)" fill="#fe4a60"/>
</svg>
