<svg xmlns="http://www.w3.org/2000/svg" width="19.074" height="16.68" viewBox="0 0 19.074 16.68">
  <g id="Group_25233" data-name="Group 25233" transform="translate(-981.5 -264.043)">
    <path id="Path_51993" data-name="Path 51993" d="M202.937,0h-8.38A1.756,1.756,0,0,0,192.8,1.756V5.884l1.368.68.684-1.368a1.676,1.676,0,1,1,3,1.5l-1.218,2.438a2.545,2.545,0,0,1-.087.963h.8l-2.122,5.834a.559.559,0,1,0,1.05.382l2.261-6.216h.392l2.284,6.218a.559.559,0,0,0,1.049-.385L200.122,10.1h2.815a1.756,1.756,0,0,0,1.756-1.756V1.756A1.756,1.756,0,0,0,202.937,0Zm-1.2,7.7h-2.507a.559.559,0,0,1,0-1.118h2.507a.559.559,0,0,1,0,1.118Zm0-2.1h-2.507a.559.559,0,0,1,0-1.118h2.507a.559.559,0,0,1,0,1.118Zm0-2.095h-5.985a.559.559,0,1,1,0-1.118h5.985a.559.559,0,0,1,0,1.118Zm0,0" transform="translate(795.882 264.043)" fill="#b11e1e"/>
    <path id="Path_51994" data-name="Path 51994" d="M9.832,38.739a1.445,1.445,0,0,0,.015-.887l1.387-2.773a.559.559,0,1,0-1-.5L9.052,36.944,6.405,35.627a4.792,4.792,0,0,0-2.36-.759H3.552A2.434,2.434,0,1,0,1.779,34.1a2.428,2.428,0,0,0,1.772.766,3.569,3.569,0,0,0-2.51,1.04A3.523,3.523,0,0,0,0,38.42v1.8A1.759,1.759,0,0,0,1.2,41.88V45a.559.559,0,0,0,.559.559H5.347A.559.559,0,0,0,5.906,45V38.725l1.789.895a1.531,1.531,0,0,0,2.135-.874Zm0,0" transform="translate(981.5 235.161)" fill="#b11e1e"/>
  </g>
</svg>
